# xmcd CD database file
#
# Track frame offsets:
#	182
#	12035
#	23072
#	34725
#	49727
#	68887
#	84075
#	96462
#	109560
#	118602
#
# Disc length: 1791 seconds
#
# Revision: 0
# Processed by: cddbd v1.5.2PL0 Copyright (c) Steve Scherf et al.
# Submitted via: CDex 1.70beta2
#
DISCID=7106fd0a
DTITLE=Tina Turner - Country In My Soul
DYEAR=1974
DGENRE=Country
TTITLE0=Stand By Your Man
TTITLE1=Soul Deep
TTITLE2=You Ain't Woman Enough To Take My Man
TTITLE3=We Had It All
TTITLE4=Lovin' Him Was Easier
TTITLE5=Good Hearted Woman
TTITLE6=If It's Alright With You
TTITLE7=Freedom To Stay
TTITLE8=If This Is Our Last Time
TTITLE9=Lay It Down
EXTD=YEAR: 1974
EXTT0=
EXTT1=
EXTT2=
EXTT3=
EXTT4=
EXTT5=
EXTT6=
EXTT7=
EXTT8=
EXTT9=
PLAYORDER=
